<svg xmlns="http://www.w3.org/2000/svg" data-name="Layer 1" viewBox="0 0 916.775 612.055"><path fill="#ffb6b6" d="m893.363 591.2-9.054 3.857-19.191-33.085 13.363-5.694 14.882 34.922zM818.545 599.767l-9.841-.001-4.682-37.96h14.525l-.002 37.961z"/><path fill="#2f2e41" d="m818.891 610.034-30.263-.001v-.383a11.78 11.78 0 0 1 11.78-11.78l5.528-4.193 10.314 4.194h2.642ZM898.868 597.772l-27.841 11.864-.15-.352a11.78 11.78 0 0 1 6.218-15.455l3.442-6.025 11.133-.186 2.43-1.035ZM808.891 375.103l-14.957 91.075 4.07 13.572-5.34 9.612 7.843 84.415-3.184 7.01 8.896 5.486h18.103l.96-76.421 4.472-11.22v-6.184l9.103-46.6 1.676 53.304 2.648 11.238-2.224 8.002 2.906 5.605 24.906 53.48h20.298l-1.57-12.094c3.637-1.842-5.46-7.223-6.334-11.205l2.989-6.725-2.989-12.703-2.74-24.821 2.89-52.395-1.36-70.556c-6.816-9.137-14.376-16.184-23.746-18.158Z"/><circle cx="845.316" cy="234.649" r="20.513" fill="#ffb6b6" data-name="ab6171fa-7d69-4734-b81c-8dff60f9761b"/><path fill="#ffb6b6" d="M760.74 396.621a8.072 8.072 0 0 1 7.543-9.814l8.263-27.47 9.553 11.443-9.311 24.332a8.116 8.116 0 0 1-16.049 1.51Z"/><path fill="#6c63ff" d="m814.344 283.708-3.704-6.766-4.772 1.593s-5.268 3.4-12.645 16.233c-3.411 5.935-10.786 43.997-10.786 43.997l-17.24 45.647 17.576 2.97 14.664-37.617 17-36Z" data-name="f348f81f-b961-4ae4-bc6b-758f6acfb12a"/><path fill="#6c63ff" d="M844.555 374.816c14.444 0 29.016 2.843 34.984 13.01-.156-2.211-.547-6.044-.953-9.56l-1.493-9.45 1.513-8.663 2-2-3.582-3.582 2.443-18.084 8.065-42.603a15.471 15.471 0 0 0-8.525-16.822l-7.748-3.726-12.561-11.651-22.722-.17-7.412 9.637-19.514 6.628 3.275 67.76-2.147 5.01c.482.442 1.497 1.387 2.047 1.995.778.86-.213 5.29-.873 7.855l-.907 6.83 2.855 2.04-3.711 4.384-.742 5.565c3.685-.872 19.617-4.403 35.708-4.403Z"/><path fill="#2f2e41" d="m850.563 254.158.263-.58c-.034 0-.067.005-.1.006ZM866.4 215.069a5.71 5.71 0 0 0-3.577-1.547c-1.327.043-2.672 1.241-2.397 2.54a21.08 21.08 0 0 0-25.369-9.513c-3.296 1.163-6.53 3.49-7.287 6.903a6.217 6.217 0 0 1-.783 2.548 2.909 2.909 0 0 1-3.096.785l-.033-.01a.97.97 0 0 0-1.17 1.368l.932 1.74a7.475 7.475 0 0 1-3.561-.076.968.968 0 0 0-1.029 1.507 16.88 16.88 0 0 0 13.46 6.918c3.726-.022 7.492-1.307 11.12-.45a9.66 9.66 0 0 1 6.496 13.56c1.115-1.219 3.269-.93 4.409.265a6.046 6.046 0 0 1 1.32 4.626 21.465 21.465 0 0 1-2.204 7.205 21.54 21.54 0 0 0 12.768-38.37Z"/><circle cx="203.437" cy="87.481" r="51" fill="#6c63ff"/><path fill="#f2f2f2" d="M60.096 239.19C34.506 182.588 35.45 110.84 75.165 63.076a286.207 286.207 0 0 0 102.438 167.687c20.447 16.145 44.87 31.973 50.455 57.42 3.476 15.833-1.45 32.58-9.967 46.373-8.518 13.793-20.39 25.138-32.127 36.32l-1.317 3.826c-51.073-35.36-98.96-78.907-124.55-135.51Z"/><path fill="#fff" d="M76.27 63.766c-9.14 50.048-2.35 103.34 19.866 149.194 4.803 9.914 10.538 19.552 18.216 27.525 7.682 7.977 16.866 12.998 27.432 16.083 9.66 2.82 19.866 4.587 28.672 9.706 9.281 5.396 15.041 14.45 17.285 24.832 2.746 12.704.763 25.636-1.616 38.215-2.64 13.967-5.605 28.433-1.778 42.473.463 1.701-2.203 2.321-2.666.623-6.659-24.428 6.287-48.521 4.477-73.08-.844-11.46-5.147-22.736-14.973-29.376-8.593-5.806-19.117-7.636-28.922-10.407-10.295-2.91-19.54-7.354-27.408-14.726-8.048-7.542-14.172-16.976-19.208-26.724-11.356-21.982-18.842-46.201-22.802-70.586a248.968 248.968 0 0 1 .809-84.56c.315-1.729 2.93-.91 2.616.808Z"/><path fill="#fff" d="M88.128 198.437a36.702 36.702 0 0 1-43.883-18.248c-.796-1.572 1.608-2.883 2.406-1.31a33.986 33.986 0 0 0 40.855 16.892c1.675-.546 2.288 2.123.622 2.666ZM136.698 255.783a70.74 70.74 0 0 0 5.722-51.235c-.457-1.703 2.21-2.323 2.667-.622a73.581 73.581 0 0 1-6.063 53.302c-.827 1.56-3.148.107-2.326-1.445ZM71.81 120.381a20.775 20.775 0 0 0 16.28-11.115c.807-1.57 3.127-.115 2.326 1.445a23.28 23.28 0 0 1-17.983 12.336 1.415 1.415 0 0 1-1.645-1.022 1.376 1.376 0 0 1 1.022-1.644Z"/><path fill="#f2f2f2" d="M285.487 63.63c-.475.994-.95 1.989-1.415 3.003a273.598 273.598 0 0 0-15.618 41.543 120.453 120.453 0 0 0-.953 3.317 288.435 288.435 0 0 0-8.762 105.83 280.106 280.106 0 0 0 7.599 41.876c4.96 18.983 11.85 39.17 10.295 58.126a48.054 48.054 0 0 1-.786 5.895l-86.43 52.791c-.257.021-.502.063-.76.085l-3.354 2.266c-.235-.696-.464-1.423-.698-2.12-.138-.402-.257-.817-.395-1.22-.085-.273-.17-.546-.263-.787a3.827 3.827 0 0 1-.074-.253c-.093-.241-.154-.475-.235-.696q-1.932-6.09-3.786-12.227c-.012-.02-.012-.02-.005-.051-9.337-31.202-16.15-63.458-17.852-95.722-.05-.97-.115-1.96-.126-2.955a267.285 267.285 0 0 1 1.506-43.592 236.291 236.291 0 0 1 4.047-23.564 196.492 196.492 0 0 1 22.763-57.063c21.003-35.3 53.061-63.492 92.297-73.73 1.003-.26 1.989-.51 3.005-.752Z"/><path fill="#fff" d="M285.963 64.845c-37.43 34.458-64.095 81.097-73.964 131.084-2.134 10.807-3.358 21.956-2.027 32.945 1.33 10.994 5.64 20.533 12.22 29.357 6.014 8.068 13.1 15.623 17.049 25.012 4.162 9.896 3.31 20.593-1.15 30.234-5.456 11.796-14.825 20.928-24.298 29.54-10.517 9.562-21.594 19.327-26.991 32.841-.654 1.638-3.157.527-2.504-1.108 9.391-23.513 34.233-34.956 47.575-55.655 6.225-9.658 9.578-21.251 5.73-32.469-3.365-9.81-10.666-17.607-16.826-25.722-6.469-8.522-11.175-17.637-13.018-28.26-1.886-10.867-1.095-22.087.753-32.901 4.168-24.39 12.772-48.234 24.291-70.088a248.968 248.968 0 0 1 51.557-67.03c1.293-1.19 2.887 1.038 1.603 2.22Z"/><path fill="#fff" d="M214.35 179.512a36.702 36.702 0 0 1-24.052-40.99c.31-1.735 3.02-1.334 2.71.402a33.986 33.986 0 0 0 22.45 38.084c1.666.573.548 3.074-1.108 2.504ZM218.603 254.543a70.74 70.74 0 0 0 35.416-37.464c.66-1.635 3.163-.525 2.504 1.108a73.581 73.581 0 0 1-36.933 38.91c-1.599.747-2.577-1.81-.987-2.554ZM248.315 107.364a20.775 20.775 0 0 0 19.692.927c1.589-.768 2.565 1.791.987 2.554a23.28 23.28 0 0 1-21.787-.977 1.415 1.415 0 0 1-.697-1.806 1.376 1.376 0 0 1 1.805-.698Z"/><path fill="#f2f2f2" d="M490.096 177.19c-25.59-56.603-24.646-128.35 15.069-176.115a286.207 286.207 0 0 0 102.438 167.687c20.447 16.145 44.87 31.973 50.456 57.42 3.475 15.833-1.451 32.58-9.968 46.373-8.518 13.793-20.39 25.138-32.127 36.32l-1.317 3.826c-51.073-35.36-98.96-78.907-124.55-135.51Z"/><path fill="#fff" d="M506.27 1.766c-9.14 50.048-2.35 103.34 19.866 149.194 4.803 9.914 10.538 19.552 18.216 27.525 7.682 7.977 16.866 12.998 27.432 16.083 9.66 2.82 19.866 4.587 28.672 9.706 9.281 5.396 15.041 14.45 17.285 24.832 2.746 12.704.763 25.636-1.616 38.215-2.64 13.967-5.605 28.433-1.778 42.473.463 1.701-2.203 2.321-2.666.623-6.659-24.428 6.287-48.521 4.477-73.08-.844-11.46-5.147-22.736-14.973-29.376-8.593-5.806-19.117-7.636-28.922-10.407-10.295-2.91-19.54-7.354-27.408-14.726-8.048-7.542-14.172-16.976-19.208-26.724-11.356-21.982-18.842-46.201-22.802-70.586a248.968 248.968 0 0 1 .809-84.56c.315-1.729 2.93-.91 2.616.808Z"/><path fill="#fff" d="M518.128 136.437a36.702 36.702 0 0 1-43.883-18.248c-.796-1.572 1.608-2.883 2.406-1.31a33.986 33.986 0 0 0 40.855 16.892c1.675-.546 2.288 2.123.622 2.666ZM566.698 193.783a70.74 70.74 0 0 0 5.722-51.235c-.457-1.703 2.21-2.323 2.667-.622a73.581 73.581 0 0 1-6.063 53.302c-.827 1.56-3.148.107-2.326-1.445ZM501.81 58.381a20.775 20.775 0 0 0 16.28-11.115c.807-1.57 3.127-.115 2.326 1.445a23.28 23.28 0 0 1-17.983 12.336 1.415 1.415 0 0 1-1.645-1.022 1.376 1.376 0 0 1 1.022-1.644Z"/><path fill="#f0f0f0" d="M715.487 1.63c-.475.994-.95 1.989-1.415 3.003a273.598 273.598 0 0 0-15.618 41.543 120.453 120.453 0 0 0-.953 3.317 288.435 288.435 0 0 0-8.762 105.83 280.106 280.106 0 0 0 7.599 41.876c4.96 18.983 11.85 39.17 10.295 58.126a48.054 48.054 0 0 1-.786 5.895l-86.43 52.791c-.257.021-.502.063-.76.085l-3.354 2.266c-.235-.696-.464-1.423-.698-2.12-.138-.402-.257-.817-.395-1.22-.085-.273-.17-.546-.263-.787a3.827 3.827 0 0 1-.074-.253c-.093-.241-.154-.475-.235-.696q-1.932-6.09-3.786-12.227c-.012-.02-.012-.02-.005-.051-9.337-31.202-16.15-63.458-17.852-95.722-.05-.97-.115-1.96-.126-2.955a267.285 267.285 0 0 1 1.506-43.592 236.291 236.291 0 0 1 4.047-23.564 196.492 196.492 0 0 1 22.763-57.063c21.003-35.3 53.061-63.492 92.297-73.73 1.004-.26 1.989-.51 3.005-.752Z"/><path fill="#fff" d="M715.963 2.845c-37.43 34.458-64.095 81.097-73.964 131.084-2.134 10.807-3.358 21.956-2.027 32.945 1.33 10.994 5.64 20.533 12.22 29.357 6.014 8.068 13.1 15.623 17.049 25.012 4.162 9.896 3.31 20.593-1.15 30.234-5.456 11.796-14.825 20.928-24.298 29.54-10.517 9.562-21.594 19.327-26.991 32.841-.654 1.638-3.157.527-2.504-1.108 9.391-23.513 34.233-34.956 47.575-55.655 6.225-9.658 9.578-21.251 5.73-32.469-3.365-9.81-10.666-17.607-16.826-25.722-6.469-8.522-11.175-17.637-13.018-28.26-1.886-10.867-1.095-22.087.753-32.901 4.168-24.39 12.772-48.234 24.291-70.088A248.968 248.968 0 0 1 714.36.625c1.293-1.19 2.887 1.038 1.603 2.22Z"/><path fill="#fff" d="M644.35 117.512a36.702 36.702 0 0 1-24.052-40.99c.31-1.735 3.02-1.334 2.71.402a33.986 33.986 0 0 0 22.45 38.084c1.666.573.548 3.073-1.108 2.504ZM648.603 192.543a70.74 70.74 0 0 0 35.416-37.464c.66-1.635 3.163-.525 2.504 1.108a73.581 73.581 0 0 1-36.933 38.91c-1.599.747-2.577-1.81-.987-2.554ZM678.315 45.364a20.775 20.775 0 0 0 19.692.927c1.589-.768 2.565 1.791.987 2.554a23.28 23.28 0 0 1-21.787-.977 1.415 1.415 0 0 1-.697-1.806 1.376 1.376 0 0 1 1.805-.698Z"/><path fill="#3f3d56" d="m163.937 596.981 9.446 7.316 36.73 6.373 40.824-101.48s25-78.209 95-62.209l225-4s69.083-7.08 80.5 25.5c2.162 6.171 60.5 142.5 60.5 142.5l40.901-5.773-4.901-116.227-97.146-225.5-168.854-10.543-174 12.043Z"/><circle cx="350.937" cy="388.981" r="65" fill="#2f2e41"/><circle cx="568.937" cy="388.981" r="65" fill="#2f2e41"/><path fill="#e6e6e6" d="m274.937 175.981 26.763-5.248s201.504-28.752 328.87 5.248l-9.633 27-337-2Z"/><path fill="#6c63ff" d="M546.626 315.481h-171.01c-20.763 0-38.708-14.377-42.669-34.186l-18.715-93.604a14.99 14.99 0 0 1 2.59-11.825 15.938 15.938 0 0 1 10.95-6.432c90.192-11.195 179.501-11.214 265.45-.058a15.7 15.7 0 0 1 10.79 6.352 15.013 15.013 0 0 1 2.67 11.672l-17.275 93.317c-3.73 20.143-21.721 34.764-42.781 34.764Z"/><path fill="#3f3d56" d="m198.866 191.22.745-13.395a12.935 12.935 0 0 1 6.149-10.306c10.797-6.624 39.923-21.208 77.092-13.563a12.977 12.977 0 0 1 10.213 10.846l.995 6.97ZM723.007 191.22l-95.193-19.448 1.599-11.197a6.692 6.692 0 0 1 5.01-5.57c42.866-10.757 75.676 8.347 84.712 14.458a6.761 6.761 0 0 1 2.952 5.197Z"/><path fill="#e6e6e6" d="M168.641 605.716a11.995 11.995 0 0 1-6.491-1.826c-25.49-14.884-41.38-42.159-47.195-81.046-4.803-32.12-2.797-72.438 5.962-119.833 15.528-84.026 48.075-168.016 61.348-200.226a29.376 29.376 0 0 1 20.07-17.284c27.362-6.73 75.128-18.02 87.602-18.02 17.094 0 26.344 16.092 26.436 16.255l.051.133 15.013 65.1v.94c8.282 28.022 2.128 48.265-4.497 60.313-7.191 13.077-16.496 19.606-16.589 19.67-14.61 11.123-38.415 46.956-62.105 93.503-24.619 48.372-42.869 96.102-48.818 127.679-7.282 38.65-17.956 50.481-25.629 53.6a13.602 13.602 0 0 1-5.158 1.042ZM540.988 307.481h-161.58a41.168 41.168 0 0 1-40.344-33.262l-17.683-91.036a15.02 15.02 0 0 1 12.814-17.769c85.224-10.888 169.614-10.907 250.825-.056a15.006 15.006 0 0 1 12.741 17.543l-16.323 90.756a41.065 41.065 0 0 1-40.45 33.824ZM753.236 605.717a13.609 13.609 0 0 1-5.162-1.043c-7.672-3.119-18.347-14.95-25.629-53.6-5.949-31.577-24.199-79.307-48.817-127.679-23.69-46.547-47.495-82.38-62.124-93.516-.075-.051-9.38-6.58-16.57-19.657-6.626-12.048-12.78-32.29-4.497-60.313l.012-1.052 15.017-65.059.035-.062c.091-.163 9.341-16.255 26.436-16.255 12.474 0 60.239 11.29 87.6 18.02a29.38 29.38 0 0 1 20.072 17.284c13.272 32.21 45.819 116.2 61.348 200.226 8.758 47.395 10.764 87.712 5.961 119.833-5.815 38.887-21.705 66.162-47.23 81.069a11.948 11.948 0 0 1-6.452 1.804Z"/><circle cx="350.937" cy="377.981" r="39" fill="#3f3d56"/><circle cx="350.937" cy="377.981" r="26" fill="#2f2e41"/><circle cx="568.937" cy="377.981" r="39" fill="#3f3d56"/><circle cx="568.937" cy="377.981" r="26" fill="#2f2e41"/><circle cx="435.937" cy="327.981" r="3" fill="#2f2e41"/><circle cx="448.937" cy="327.981" r="3" fill="#2f2e41"/><circle cx="442.937" cy="338.981" r="3" fill="#2f2e41"/><circle cx="454.937" cy="338.981" r="3" fill="#2f2e41"/><circle cx="466.937" cy="338.981" r="3" fill="#2f2e41"/><circle cx="478.937" cy="338.981" r="3" fill="#2f2e41"/><circle cx="461.937" cy="327.981" r="3" fill="#2f2e41"/><circle cx="474.937" cy="327.981" r="3" fill="#2f2e41"/><circle cx="487.937" cy="327.981" r="3" fill="#2f2e41"/><path fill="#2f2e41" d="M473.937 420.481h-26a4.5 4.5 0 1 1 0-9h26a4.5 4.5 0 0 1 0 9Z"/><path fill="#3f3d56" d="M301.78 224.867a7.464 7.464 0 0 1-7.244-5.75l-3.987-16.927a7.457 7.457 0 0 1 14.517-3.42l3.987 16.928a7.467 7.467 0 0 1-7.273 9.17ZM621.093 223.867a7.467 7.467 0 0 1-7.273-9.169l3.988-16.928a7.457 7.457 0 0 1 14.516 3.42l-3.987 16.928a7.464 7.464 0 0 1-7.244 5.75ZM246.765 274.835a11.942 11.942 0 0 1-6.858-2.164l-8.37-5.859a11.968 11.968 0 0 1-5.1-9.797V239.07a13.606 13.606 0 0 1 13.59-13.59h12.82a13.606 13.606 0 0 1 13.59 13.59v18.12a12.002 12.002 0 0 1-4.866 9.627l-7.712 5.683a11.942 11.942 0 0 1-7.094 2.334ZM252.846 340.481h-12.819a13.606 13.606 0 0 1-13.59-13.59v-17.944a11.968 11.968 0 0 1 5.1-9.797l8.37-5.859a11.95 11.95 0 0 1 13.952.17l7.712 5.683a12.002 12.002 0 0 1 4.866 9.627v18.12a13.606 13.606 0 0 1-13.59 13.59ZM292.846 302.981h-17.943a11.968 11.968 0 0 1-9.797-5.101l-5.86-8.37a11.95 11.95 0 0 1 .17-13.951l5.684-7.713a12.002 12.002 0 0 1 9.627-4.865h18.12a13.606 13.606 0 0 1 13.59 13.59v12.82a13.606 13.606 0 0 1-13.59 13.59ZM216.97 302.981h-17.943a13.606 13.606 0 0 1-13.59-13.59v-12.82a13.606 13.606 0 0 1 13.59-13.59h18.12a12.002 12.002 0 0 1 9.627 4.865l5.683 7.713a11.95 11.95 0 0 1 .17 13.951l-5.86 8.37a11.968 11.968 0 0 1-9.797 5.101Z"/><circle cx="675.937" cy="231.981" r="23" fill="#3f3d56"/><circle cx="726.937" cy="284.981" r="23" fill="#3f3d56"/><circle cx="675.937" cy="334.981" r="23" fill="#3f3d56"/><circle cx="624.937" cy="283.981" r="23" fill="#3f3d56"/><path fill="#e6e6e6" d="M726.937 299.981a15 15 0 1 1 15-15 15.017 15.017 0 0 1-15 15Zm0-28a13 13 0 1 0 13 13 13.014 13.014 0 0 0-13-13ZM692.009 243.14l-30.145-.426 15.442-25.893Zm-26.652-2.377 23.216.329-11.323-20.27ZM636.937 295.981h-24v-24h24Zm-22-2h20v-20h-20ZM688.348 345.307l-10.995-10.974 9.696-9.678-1.414-1.416-9.698 9.68-9.699-9.68-1.413 1.416 9.696 9.678-10.995 10.974 1.413 1.416 10.998-10.977 10.998 10.977 1.413-1.416zM246.732 73.84a15 15 0 1 1 15-15 15.017 15.017 0 0 1-15 15Zm0-28a13 13 0 1 0 13 13 13.014 13.014 0 0 0-13-13ZM212.804 49l-30.144-.427 15.442-25.893Zm-26.652-2.378 23.217.328-11.324-20.27ZM168.437 85.481h-24v-24h24Zm-22-2h20v-20h-20ZM190.143 130.165l-10.995-10.974 9.696-9.677-1.413-1.416-9.699 9.68-9.699-9.68-1.413 1.416 9.696 9.677-10.995 10.974 1.413 1.416 10.998-10.977 10.998 10.977 1.413-1.416z"/><path d="m867.437 344.481-38.815 29.213 43.815-19.213-5-10z" opacity=".2"/><path fill="#a0616a" d="m149.437 380.481-49 2-6-33 42-13 13 44zM131.422 299.605l-10.93-11.128 13.401-20.49 22.936-38.18a8.926 8.926 0 1 1 10.904 4.781l-18.932 40.76Z"/><path fill="#6c63ff" d="M119.315 325.01a12.317 12.317 0 0 1-12.152 5.502 11.515 11.515 0 0 1-9.675-8.11 10.98 10.98 0 0 1 1.21-9.167c7.31-12.325 20.795-28.602 20.93-28.764l.215-.26 22.743 4.928Z"/><path fill="#a0616a" d="m137.758 597.772 13.589-.001 6.464-52.415-20.056.001.003 52.415z"/><path fill="#2f2e41" d="M134.291 593.335h26.763a17.056 17.056 0 0 1 17.055 17.054v.554l-43.817.002Z"/><path fill="#a0616a" d="m31.948 591.89 13.436 2.03 14.228-50.859-17.614-2.998-10.05 51.827z"/><path fill="#2f2e41" d="m29.184 586.985 26.461 4h.001a17.056 17.056 0 0 1 14.314 19.412l-.083.548-43.325-6.549ZM98.437 372.481l47-8 14.542 29.976.554 195.637-25.795-.161-10.783-158.344-68.722 146.313-27.71-3.326 60.409-156.842s-3.326-27.71 7.204-41.566Z"/><path fill="#6c63ff" d="M80.988 313.422a11.744 11.744 0 0 1 3.24-12.395l6.679-6.071 18.83-3.173 11.775-2.14 18.925 54.838-45.963 21.117c-4.034-.87-5.645-3.077-3.298-7.464Z"/><path fill="#a0616a" d="m123.171 331.926 13.148-8.39 17.275 17.348 32.61 30.338a8.926 8.926 0 1 1-6.934 9.679l-35.961-26.954Z"/><path fill="#6c63ff" d="M100.82 314.825a12.315 12.315 0 0 1-2.87-13.026 11.521 11.521 0 0 1 9.937-7.789 10.98 10.98 0 0 1 8.718 3.08c10.546 9.702 23.682 26.263 23.813 26.428l.208.264-9.525 21.232Z"/><circle cx="101.474" cy="264.44" r="20.671" fill="#a0616a"/><path fill="#2f2e41" d="M84.738 293.889a79.196 79.196 0 0 1-9.59-.585l-.436-.053-3.33-18.076a30.496 30.496 0 0 1 22.79-35.161 2.834 2.834 0 0 1 2.822.873l.794-.276a24.518 24.518 0 0 1 31.224 15.078l.197.565-5.299 1.848a11.766 11.766 0 0 0-6.212 17.168l5.418 9.02-.577.289a83.749 83.749 0 0 1-37.8 9.31Z"/><path fill="#ffb6b6" d="M794.897 380.39a8.072 8.072 0 0 1 10.904-5.859l18.8-21.667 4.021 14.354-18.47 18.375a8.116 8.116 0 0 1-15.255-5.204Z"/><path fill="#6c63ff" d="m878.788 285.13 7.702-.416 1.16 4.895s-.114 6.27-7.137 19.3-61.434 71.044-61.434 71.044l-11.783-13.373 29.125-30 17.639-31.444Z" data-name="f348f81f-b961-4ae4-bc6b-758f6acfb12a"/><path fill="#ccc" d="M1.247 612.055h914.281a1.247 1.247 0 0 0 0-2.494H1.247a1.247 1.247 0 1 0 0 2.494Z" data-name="Path 2960"/></svg>